<?xml version="1.0" encoding="utf-8"?>
<!-- Generator: Adobe Illustrator 16.0.0, SVG Export Plug-In . SVG Version: 6.00 Build 0)  -->
<!DOCTYPE svg PUBLIC "-//W3C//DTD SVG 1.1//EN" "http://www.w3.org/Graphics/SVG/1.1/DTD/svg11.dtd">
<svg version="1.1" id="Layer_1" xmlns="http://www.w3.org/2000/svg" xmlns:xlink="http://www.w3.org/1999/xlink" x="0px" y="0px"
	 width="48px" height="48px" viewBox="0 0 48 48" enable-background="new 0 0 48 48" xml:space="preserve">
<path d="M42.316,5.982H5.683c-0.23,0-0.384,0.153-0.384,0.384S5.453,6.75,5.683,6.75h1.805v22.732c0,0.922,0.73,1.652,1.651,1.652
	h29.837c0.921,0,1.65-0.73,1.65-1.652V6.75h1.689c0.23,0,0.385-0.153,0.385-0.384S42.509,5.982,42.316,5.982z M39.859,29.482
	c0,0.5-0.385,0.884-0.883,0.884H9.178c-0.5,0-0.883-0.384-0.883-0.884V6.75h31.603v22.732H39.859z M30.375,42.348
	c0.152,0.152,0.152,0.383,0,0.537C30.297,42.961,30.183,43,30.105,43c-0.076,0-0.191-0.039-0.269-0.115l-4.992-4.992v4.723
	c0,0.23-0.153,0.385-0.384,0.385s-0.384-0.154-0.384-0.385v-4.723l-5.03,4.992C18.97,42.961,18.854,43,18.777,43
	c-0.077,0-0.192-0.039-0.269-0.115c-0.154-0.154-0.154-0.385,0-0.537l5.568-5.568v-2.535H20.89c-0.23,0-0.384-0.153-0.384-0.383
	c0-0.23,0.154-0.385,0.384-0.385h7.027c0.229,0,0.384,0.154,0.384,0.385c0,0.229-0.154,0.383-0.384,0.383h-3.072v2.535
	L30.375,42.348z M35.597,17.387c-0.153-0.154-0.153-0.384,0-0.538c0.153-0.154,0.384-0.154,0.538,0l1.843,1.805
	c0.153,0.153,0.153,0.384,0,0.538l-1.843,1.843c-0.077,0.076-0.192,0.115-0.27,0.115c-0.115,0-0.191-0.039-0.269-0.115
	c-0.153-0.154-0.153-0.385,0-0.537l1.536-1.537L35.597,17.387z M10.33,19.192c-0.077-0.077-0.115-0.154-0.115-0.269
	s0.039-0.192,0.115-0.269l1.843-1.805c0.153-0.154,0.384-0.154,0.538,0c0.153,0.153,0.153,0.384,0,0.538l-1.536,1.536l1.536,1.536
	c0.153,0.154,0.153,0.384,0,0.537c-0.077,0.077-0.154,0.115-0.269,0.115s-0.192-0.038-0.269-0.115L10.33,19.192z M15.091,26.411
	h17.817c0.23,0,0.385-0.153,0.385-0.384V11.089c0-0.23-0.154-0.384-0.385-0.384H15.091c-0.23,0-0.384,0.153-0.384,0.384v14.938
	C14.707,26.258,14.861,26.411,15.091,26.411z M15.475,25.643v-1.151c0.039,0,0.039-0.038,0.077-0.038l3.802-3.803l2.035,2.035
	c0.154,0.154,0.384,0.154,0.538,0l5.991-5.99l4.608,4.608l0.037,0.038v4.301H15.475z M32.525,11.474v8.794l-4.379-4.34
	c-0.152-0.153-0.383-0.153-0.537,0l-5.99,5.952l-2.035-2.035c-0.154-0.153-0.384-0.153-0.538,0l-3.571,3.571V11.474H32.525z
	 M20.391,17.81c1.113,0,1.997-0.883,1.997-1.997c0-1.113-0.883-1.997-1.997-1.997c-1.114,0-1.997,0.883-1.997,1.997
	C18.394,16.926,19.277,17.81,20.391,17.81z M20.391,14.584c0.691,0,1.229,0.538,1.229,1.229c0,0.691-0.538,1.229-1.229,1.229
	c-0.691,0-1.229-0.538-1.229-1.229C19.162,15.122,19.699,14.584,20.391,14.584z"/>
</svg>
